<svg width="76" height="76" viewBox="0 0 76 76" fill="none" xmlns="http://www.w3.org/2000/svg">
<path d="M42.9163 36.8252C45.3171 36.8252 46.3143 35.9018 45.4279 32.8731C44.8277 30.8325 43.0733 29.0781 41.0326 28.4779C38.0039 27.5914 37.0806 28.5887 37.0806 30.9895V33.6488C37.0806 35.9018 38.0039 36.8252 39.8507 36.8252H42.9163Z" stroke="#8B8C91" stroke-width="1.38506" stroke-linecap="round" stroke-linejoin="round"/>
<path d="M44.4675 39.3183C43.6088 43.5935 39.509 46.696 34.8459 45.9389C31.3463 45.3756 28.53 42.5593 27.9576 39.0597C27.2096 34.4151 30.2937 30.3154 34.5504 29.4474" stroke="#8B8C91" stroke-width="1.38506" stroke-linecap="round" stroke-linejoin="round"/>
<g opacity="0.2" filter="url(#filter0_f_1_105)">
<path d="M44.4237 37.8125C47.0384 37.8125 48.1245 36.8069 47.1591 33.5083C46.5054 31.2858 44.5946 29.3751 42.3721 28.7214C39.0736 27.756 38.0679 28.8421 38.0679 31.4568V34.3531C38.0679 36.8069 39.0736 37.8125 41.0849 37.8125H44.4237Z" stroke="#8B8C91" stroke-width="1.50848" stroke-linecap="round" stroke-linejoin="round"/>
<path d="M46.1131 40.5278C45.1778 45.184 40.7127 48.563 35.6342 47.7383C31.8227 47.1249 28.7555 44.0576 28.132 40.2462C27.3174 35.1878 30.6763 30.7226 35.3124 29.7773" stroke="#8B8C91" stroke-width="1.50848" stroke-linecap="round" stroke-linejoin="round"/>
</g>
<defs>
<filter id="filter0_f_1_105" x="-1.22772" y="-1.483" width="78.5912" height="78.5912" filterUnits="userSpaceOnUse" color-interpolation-filters="sRGB">
<feFlood flood-opacity="0" result="BackgroundImageFix"/>
<feBlend mode="normal" in="SourceGraphic" in2="BackgroundImageFix" result="shape"/>
<feGaussianBlur stdDeviation="13.6139" result="effect1_foregroundBlur_1_105"/>
</filter>
</defs>
</svg>
