<svg width="71" height="73" viewBox="0 0 71 73" fill="none" xmlns="http://www.w3.org/2000/svg">
<g opacity="0.2" filter="url(#filter0_f_1_144)">
<path d="M43.5319 35.3953V29.5974C43.5319 28.3185 42.9863 27.8069 41.6306 27.8069H38.186C36.8303 27.8069 36.2847 28.3185 36.2847 29.5974V35.3953C36.2847 36.6742 36.8303 37.1858 38.186 37.1858H41.6306C42.9863 37.1858 43.5319 36.6742 43.5319 35.3953Z" fill="#FF6F42"/>
<path d="M34.5796 37.271V43.0689C34.5796 44.3478 34.0339 44.8594 32.6782 44.8594H29.2336C27.878 44.8594 27.3323 44.3478 27.3323 43.0689V37.271C27.3323 35.9921 27.878 35.4805 29.2336 35.4805H32.6782C34.0339 35.4805 34.5796 35.9921 34.5796 37.271Z" fill="#FF6F42"/>
<path d="M43.5319 43.0688V40.6815C43.5319 39.4026 42.9863 38.891 41.6306 38.891H38.186C36.8303 38.891 36.2847 39.4026 36.2847 40.6815V43.0688C36.2847 44.3478 36.8303 44.8593 38.186 44.8593H41.6306C42.9863 44.8593 43.5319 44.3478 43.5319 43.0688Z" fill="#FF6F42"/>
<path d="M34.5796 31.9848V29.5974C34.5796 28.3185 34.0339 27.8069 32.6782 27.8069H29.2336C27.878 27.8069 27.3323 28.3185 27.3323 29.5974V31.9848C27.3323 33.2637 27.878 33.7753 29.2336 33.7753H32.6782C34.0339 33.7753 34.5796 33.2637 34.5796 31.9848Z" fill="#FF6F42"/>
</g>
<defs>
<filter id="filter0_f_1_144" x="-2.02704" y="-1.12605" width="74.9183" height="74.9184" filterUnits="userSpaceOnUse" color-interpolation-filters="sRGB">
<feFlood flood-opacity="0" result="BackgroundImageFix"/>
<feBlend mode="normal" in="SourceGraphic" in2="BackgroundImageFix" result="shape"/>
<feGaussianBlur stdDeviation="13.6139" result="effect1_foregroundBlur_1_144"/>
</filter>
</defs>
</svg>
