<svg width="71" height="73" viewBox="0 0 71 73" fill="none" xmlns="http://www.w3.org/2000/svg">
<path d="M44.1299 36.1665V29.8875C44.1299 28.5025 43.539 27.9484 42.0708 27.9484H38.3404C36.8722 27.9484 36.2812 28.5025 36.2812 29.8875V36.1665C36.2812 37.5515 36.8722 38.1056 38.3404 38.1056H42.0708C43.539 38.1056 44.1299 37.5515 44.1299 36.1665Z" fill="#FF6F42"/>
<path d="M34.4344 38.1979V44.4769C34.4344 45.8619 33.8434 46.4159 32.3753 46.4159H28.6448C27.1767 46.4159 26.5857 45.8619 26.5857 44.4769V38.1979C26.5857 36.8128 27.1767 36.2588 28.6448 36.2588H32.3753C33.8434 36.2588 34.4344 36.8128 34.4344 38.1979Z" fill="#FF6F42"/>
<path d="M44.1299 44.4768V41.8914C44.1299 40.5063 43.539 39.9523 42.0708 39.9523H38.3404C36.8722 39.9523 36.2812 40.5063 36.2812 41.8914V44.4768C36.2812 45.8619 36.8722 46.4159 38.3404 46.4159H42.0708C43.539 46.4159 44.1299 45.8619 44.1299 44.4768Z" fill="#FF6F42"/>
<path d="M34.4344 32.473V29.8875C34.4344 28.5025 33.8434 27.9484 32.3753 27.9484H28.6448C27.1767 27.9484 26.5857 28.5025 26.5857 29.8875V32.473C26.5857 33.858 27.1767 34.4121 28.6448 34.4121H32.3753C33.8434 34.4121 34.4344 33.858 34.4344 32.473Z" fill="#FF6F42"/>
<g opacity="0.2" filter="url(#filter0_f_1_135)">
<path d="M43.5319 35.3953V29.5974C43.5319 28.3185 42.9863 27.8069 41.6306 27.8069H38.186C36.8303 27.8069 36.2847 28.3185 36.2847 29.5974V35.3953C36.2847 36.6742 36.8303 37.1858 38.186 37.1858H41.6306C42.9863 37.1858 43.5319 36.6742 43.5319 35.3953Z" fill="#FF6F42"/>
<path d="M34.5796 37.271V43.0689C34.5796 44.3478 34.0339 44.8594 32.6782 44.8594H29.2336C27.878 44.8594 27.3323 44.3478 27.3323 43.0689V37.271C27.3323 35.9921 27.878 35.4805 29.2336 35.4805H32.6782C34.0339 35.4805 34.5796 35.9921 34.5796 37.271Z" fill="#FF6F42"/>
<path d="M43.5319 43.0688V40.6815C43.5319 39.4026 42.9863 38.891 41.6306 38.891H38.186C36.8303 38.891 36.2847 39.4026 36.2847 40.6815V43.0688C36.2847 44.3478 36.8303 44.8593 38.186 44.8593H41.6306C42.9863 44.8593 43.5319 44.3478 43.5319 43.0688Z" fill="#FF6F42"/>
<path d="M34.5796 31.9848V29.5974C34.5796 28.3185 34.0339 27.8069 32.6782 27.8069H29.2336C27.878 27.8069 27.3323 28.3185 27.3323 29.5974V31.9848C27.3323 33.2637 27.878 33.7753 29.2336 33.7753H32.6782C34.0339 33.7753 34.5796 33.2637 34.5796 31.9848Z" fill="#FF6F42"/>
</g>
<defs>
<filter id="filter0_f_1_135" x="-2.02704" y="-1.12605" width="74.9183" height="74.9184" filterUnits="userSpaceOnUse" color-interpolation-filters="sRGB">
<feFlood flood-opacity="0" result="BackgroundImageFix"/>
<feBlend mode="normal" in="SourceGraphic" in2="BackgroundImageFix" result="shape"/>
<feGaussianBlur stdDeviation="13.6139" result="effect1_foregroundBlur_1_135"/>
</filter>
</defs>
</svg>
