<svg width="140" height="23" viewBox="0 0 140 23" fill="none" xmlns="http://www.w3.org/2000/svg">
<path d="M30.4903 6.84321C32.9809 6.86584 34.9465 8.87861 34.9113 11.3683C34.876 13.8589 32.846 15.8237 30.3653 15.7685C27.9127 15.7142 25.9895 13.7449 25.9959 11.295C26.0022 8.80621 28.0059 6.8206 30.4903 6.84321Z" fill="#C74AE3"/>
<path d="M36.2832 20.833C32.3925 23.9662 25.4401 22.8449 21.839 18.6283C17.8777 13.9901 18.3403 7.03141 22.8835 2.91084C27.3714 -1.15904 34.3147 -0.934593 38.5475 3.41765C42.6563 7.64229 42.8383 14.6516 38.9928 18.6076C38.095 17.6672 37.1963 16.725 36.2542 15.7385C37.7122 13.7005 38.1639 11.3683 37.2923 8.86408C35.9909 5.12543 31.8685 3.15249 28.109 4.42676C24.3939 5.68564 22.3604 9.68493 23.5206 13.4498C24.6935 17.2563 28.672 19.4184 32.4903 18.2455C33.2504 18.0121 33.6723 18.1487 34.1637 18.7143C34.8135 19.4637 35.5655 20.1244 36.2832 20.833ZM0 6.86035C0 5.95714 0.172859 5.10823 0.517672 4.31634C0.862485 3.52445 1.33219 2.8312 1.9268 2.23751C2.52139 1.64381 3.21374 1.17411 4.00563 0.829294C4.79752 0.484481 5.64552 0.311622 6.54964 0.311622H16.5719V4.68287H6.54964C6.24465 4.68287 5.96046 4.73899 5.6962 4.85031C5.43193 4.96253 5.20116 5.11728 5.00295 5.31458C4.80476 5.51278 4.64999 5.74356 4.53869 6.00783C4.42646 6.2721 4.37125 6.55627 4.37125 6.86126C4.37125 7.16625 4.42646 7.45315 4.53869 7.72193C4.64999 7.99073 4.80566 8.22422 5.00295 8.42243C5.20116 8.62062 5.43193 8.77538 5.6962 8.88671C5.96046 8.99892 6.24465 9.05413 6.54964 9.05413H10.9209C11.825 9.05413 12.6748 9.22428 13.4721 9.56456C14.2695 9.90485 14.9646 10.3718 15.5591 10.9655C16.1537 11.5592 16.6198 12.2552 16.9601 13.0525C17.3003 13.8498 17.4706 14.7006 17.4706 15.6038C17.4706 16.5078 17.3003 17.3559 16.9601 18.1478C16.6198 18.9397 16.1527 19.6329 15.5591 20.2266C14.9654 20.8203 14.2695 21.29 13.4721 21.6358C12.6748 21.9814 11.8241 22.1534 10.9209 22.1534H1.21816V17.7821H10.9209C11.2259 17.7821 11.5092 17.726 11.7743 17.6147C12.0386 17.5034 12.2694 17.3477 12.4676 17.1504C12.6658 16.9532 12.8205 16.7215 12.9318 16.4572C13.0432 16.1929 13.0993 15.9088 13.0993 15.6038C13.0993 15.2987 13.0432 15.0146 12.9318 14.7503C12.8196 14.486 12.6649 14.2553 12.4676 14.0571C12.2694 13.8589 12.0386 13.7041 11.7743 13.5928C11.5101 13.4815 11.2259 13.4254 10.9209 13.4254H6.54964C5.64552 13.4254 4.79752 13.2525 4.00563 12.9077C3.21374 12.5629 2.52048 12.0932 1.9268 11.4986C1.3331 10.9049 0.862485 10.2089 0.517672 9.41251C0.172859 8.61519 0 7.76447 0 6.86035ZM59.8924 22.1534H44.5995V0.310717H48.9707V17.7821H59.8916L59.8924 22.1534ZM60.441 6.86035C60.441 5.95714 60.6138 5.10823 60.9585 4.31634C61.3035 3.52445 61.7731 2.8312 62.3677 2.23751C62.9622 1.64381 63.6546 1.17411 64.4465 0.828389C65.2384 0.483576 66.0865 0.310717 66.9906 0.310717H77.0127V4.68197H66.9906C66.6855 4.68197 66.4014 4.73808 66.1371 4.8494C65.8728 4.96163 65.642 5.11638 65.4439 5.31368C65.2457 5.51187 65.091 5.74266 64.9797 6.00692C64.8674 6.27119 64.8122 6.55537 64.8122 6.86035C64.8122 7.16536 64.8674 7.45224 64.9797 7.72103C65.091 7.98983 65.2466 8.22332 65.4439 8.42152C65.642 8.61972 65.8728 8.77448 66.1371 8.8858C66.4014 8.99801 66.6855 9.05322 66.9906 9.05322H71.3618C72.2659 9.05322 73.1158 9.22337 73.9131 9.56365C74.7104 9.90394 75.4054 10.3709 76.0001 10.9646C76.5947 11.5583 77.0607 12.2543 77.4011 13.0516C77.7413 13.8489 77.9114 14.6997 77.9114 15.6029C77.9114 16.507 77.7413 17.3551 77.4011 18.1468C77.0607 18.9387 76.5937 19.632 76.0001 20.2258C75.4064 20.8194 74.7104 21.289 73.9131 21.6348C73.1158 21.9806 72.265 22.1525 71.3618 22.1525H61.6591V17.7813H71.3618C71.6668 17.7813 71.951 17.7251 72.2153 17.6138C72.4796 17.5025 72.7103 17.3468 72.9085 17.1496C73.1067 16.9513 73.2614 16.7205 73.3727 16.4564C73.484 16.1921 73.5402 15.9078 73.5402 15.6029C73.5402 15.2979 73.484 15.0137 73.3727 14.7495C73.2606 14.4852 73.1057 14.2544 72.9085 14.0562C72.7103 13.858 72.4796 13.7032 72.2153 13.5919C71.951 13.4806 71.6668 13.4245 71.3618 13.4245H66.9906C66.0865 13.4245 65.2384 13.2516 64.4465 12.9068C63.6546 12.562 62.9614 12.0923 62.3677 11.4977C61.7741 10.904 61.3035 10.208 60.9585 9.4107C60.6129 8.61519 60.441 7.76447 60.441 6.86035ZM98.2157 19.9144C97.2002 20.7877 96.0626 21.4583 94.8036 21.9253C93.5448 22.3924 92.2398 22.6258 90.8894 22.6258C89.8541 22.6258 88.8559 22.4909 87.8965 22.2222C86.9372 21.9534 86.0385 21.5724 85.2005 21.08C84.3624 20.5878 83.5987 19.9958 82.9081 19.3053C82.2175 18.6148 81.6257 17.851 81.1334 17.0128C80.641 16.1748 80.26 15.2761 79.9912 14.3168C79.7224 13.3575 79.5876 12.3593 79.5876 11.3239C79.5876 10.2886 79.7224 9.28763 79.9912 8.32287C80.26 7.35812 80.641 6.45672 81.1334 5.61957C81.6257 4.78152 82.2166 4.01769 82.9081 3.32715C83.5987 2.63662 84.3624 2.04564 85.2005 1.5524C86.0385 1.06007 86.9372 0.679061 87.8965 0.41027C88.8559 0.141478 89.8541 0.00663001 90.8894 0.00663001C92.2398 0.00663001 93.5448 0.237411 94.8036 0.699876C96.0626 1.16234 97.2002 1.83478 98.2157 2.71808L95.9006 6.5264C95.2607 5.83588 94.5041 5.30553 93.6307 4.93448C92.7573 4.56431 91.8434 4.37879 90.8894 4.37879C89.9247 4.37879 89.0206 4.5616 88.1781 4.92724C87.3345 5.29286 86.5988 5.78791 85.9698 6.41237C85.3399 7.03684 84.843 7.77352 84.4774 8.62062C84.1117 9.46863 83.9289 10.37 83.9289 11.3239C83.9289 12.2787 84.1117 13.1747 84.4774 14.0127C84.843 14.8507 85.3399 15.5838 85.9698 16.2137C86.5996 16.8437 87.3354 17.3405 88.1781 17.7062C89.0206 18.0717 89.9247 18.2546 90.8894 18.2546C91.8434 18.2546 92.7573 18.0691 93.6307 17.6988C94.5041 17.3287 95.2607 16.7975 95.9006 16.1069L98.2157 19.9144ZM117.971 22.1534H113.6V17.7821H104.857V22.1534H100.5V9.05413C100.5 7.84593 100.728 6.71103 101.185 5.64944C101.642 4.58875 102.264 3.66202 103.051 2.86921C103.838 2.07732 104.763 1.45286 105.823 0.995819C106.884 0.538783 108.019 0.310717 109.228 0.310717C110.436 0.310717 111.571 0.538783 112.633 0.995819C113.693 1.45286 114.62 2.07732 115.413 2.86921C116.205 3.6611 116.829 4.58784 117.286 5.64944C117.743 6.71103 117.971 7.84593 117.971 9.05413V22.1534ZM113.6 13.4254V9.05413C113.6 8.45501 113.486 7.88846 113.257 7.3554C113.029 6.82234 112.717 6.35807 112.32 5.96167C111.924 5.56527 111.46 5.25304 110.927 5.02497C110.394 4.79691 109.827 4.68197 109.228 4.68197C108.629 4.68197 108.062 4.796 107.529 5.02497C106.996 5.25304 106.532 5.56527 106.135 5.96167C105.739 6.35807 105.427 6.82234 105.199 7.3554C104.971 7.88846 104.856 8.45501 104.856 9.05413V13.4254H113.6ZM139.236 22.1534H134.559L126.136 7.77443V22.1534H121.765V0.310717H126.441L134.864 14.7051V0.310717H139.236V22.1534Z" fill="#F2FEFB"/>
</svg>
