<svg width="77" height="77" viewBox="0 0 77 77" fill="none" xmlns="http://www.w3.org/2000/svg">
<path d="M27.8467 28.1392V43.8366C27.8467 45.3694 29.084 46.6067 30.6168 46.6067H46.3142" stroke="#FF6F42" stroke-width="1.38506" stroke-miterlimit="10" stroke-linecap="round" stroke-linejoin="round"/>
<path d="M30.6169 41.9899L34.8552 37.0406C35.557 36.228 36.8036 36.1726 37.5607 36.939L38.4379 37.8162C39.1951 38.5734 40.4417 38.5272 41.1434 37.7146L45.3909 32.7561" stroke="#FF6F42" stroke-width="1.38506" stroke-miterlimit="10" stroke-linecap="round" stroke-linejoin="round"/>
<g opacity="0.2" filter="url(#filter0_f_1_94)">
<path d="M28.3901 28.3038V45.3999C28.3901 47.0693 29.7377 48.4169 31.4071 48.4169H48.5033" stroke="#FF6F42" stroke-width="1.50848" stroke-miterlimit="10" stroke-linecap="round" stroke-linejoin="round"/>
<path d="M31.4072 43.3886L36.0232 37.9983C36.7875 37.1133 38.1451 37.053 38.9698 37.8877L39.9251 38.8431C40.7498 39.6677 42.1074 39.6174 42.8717 38.7324L47.4977 33.3321" stroke="#FF6F42" stroke-width="1.50848" stroke-miterlimit="10" stroke-linecap="round" stroke-linejoin="round"/>
</g>
<defs>
<filter id="filter0_f_1_94" x="-0.848818" y="-0.935202" width="78.5912" height="78.5912" filterUnits="userSpaceOnUse" color-interpolation-filters="sRGB">
<feFlood flood-opacity="0" result="BackgroundImageFix"/>
<feBlend mode="normal" in="SourceGraphic" in2="BackgroundImageFix" result="shape"/>
<feGaussianBlur stdDeviation="13.6139" result="effect1_foregroundBlur_1_94"/>
</filter>
</defs>
</svg>
