<svg width="77" height="77" viewBox="0 0 77 77" fill="none" xmlns="http://www.w3.org/2000/svg">
<path d="M27.8468 28.1392V43.8366C27.8468 45.3694 29.0841 46.6067 30.6169 46.6067H46.3143" stroke="#8B8C91" stroke-width="1.38506" stroke-miterlimit="10" stroke-linecap="round" stroke-linejoin="round"/>
<path d="M30.6169 41.9899L34.8552 37.0406C35.5569 36.228 36.8035 36.1726 37.5607 36.939L38.4379 37.8162C39.195 38.5734 40.4416 38.5272 41.1434 37.7146L45.3909 32.7561" stroke="#8B8C91" stroke-width="1.38506" stroke-miterlimit="10" stroke-linecap="round" stroke-linejoin="round"/>
<g opacity="0.2" filter="url(#filter0_f_1_94)">
<path d="M28.3902 28.3038V45.3999C28.3902 47.0693 29.7378 48.4169 31.4072 48.4169H48.5033" stroke="#8B8C91" stroke-width="1.50848" stroke-miterlimit="10" stroke-linecap="round" stroke-linejoin="round"/>
<path d="M31.4071 43.3886L36.0231 37.9983C36.7874 37.1133 38.145 37.053 38.9696 37.8877L39.925 38.8431C40.7496 39.6677 42.1073 39.6174 42.8716 38.7324L47.4976 33.332" stroke="#8B8C91" stroke-width="1.50848" stroke-miterlimit="10" stroke-linecap="round" stroke-linejoin="round"/>
</g>
<defs>
<filter id="filter0_f_1_94" x="-0.848879" y="-0.935205" width="78.5912" height="78.5912" filterUnits="userSpaceOnUse" color-interpolation-filters="sRGB">
<feFlood flood-opacity="0" result="BackgroundImageFix"/>
<feBlend mode="normal" in="SourceGraphic" in2="BackgroundImageFix" result="shape"/>
<feGaussianBlur stdDeviation="13.6139" result="effect1_foregroundBlur_1_94"/>
</filter>
</defs>
</svg>
