<svg width="27" height="27" viewBox="0 0 27 27" fill="none" xmlns="http://www.w3.org/2000/svg">
<path d="M3.26733 10.5694V16.8535C3.26733 19.1625 3.26733 19.1624 5.44555 20.6327L11.4357 24.0961C12.3396 24.6189 13.8099 24.6189 14.703 24.0961L20.6931 20.6327C22.8713 19.1624 22.8713 19.1625 22.8713 16.8644V10.5694C22.8713 8.27136 22.8713 8.27136 20.6931 6.80106L14.703 3.3377C13.8099 2.81492 12.3396 2.81492 11.4357 3.3377L5.44555 6.80106C3.26733 8.27136 3.26733 8.27136 3.26733 10.5694Z" stroke="#FF6F42" stroke-width="1.63366" stroke-linecap="round" stroke-linejoin="round"/>
<path d="M13.0693 16.9842C14.8738 16.9842 16.3367 15.5214 16.3367 13.7169C16.3367 11.9124 14.8738 10.4496 13.0693 10.4496C11.2648 10.4496 9.802 11.9124 9.802 13.7169C9.802 15.5214 11.2648 16.9842 13.0693 16.9842Z" stroke="#FF6F42" stroke-width="1.63366" stroke-linecap="round" stroke-linejoin="round"/>
</svg>
