<svg width="29" height="28" viewBox="0 0 29 28" fill="none" xmlns="http://www.w3.org/2000/svg">
<path d="M19.3353 26.2144C20.4304 26.2144 21.3181 25.3267 21.3181 24.2316C21.3181 23.1365 20.4304 22.2488 19.3353 22.2488C18.2403 22.2488 17.3526 23.1365 17.3526 24.2316C17.3526 25.3267 18.2403 26.2144 19.3353 26.2144Z" fill="white"/>
<path d="M10.2711 26.2144C11.3662 26.2144 12.2539 25.3267 12.2539 24.2316C12.2539 23.1365 11.3662 22.2488 10.2711 22.2488C9.17607 22.2488 8.28835 23.1365 8.28835 24.2316C8.28835 25.3267 9.17607 26.2144 10.2711 26.2144Z" fill="white"/>
<path opacity="0.4" d="M6.40753 5.18549L6.18093 7.9614C6.13561 8.49392 6.55483 8.9358 7.08735 8.9358H24.4339C24.9098 8.9358 25.3064 8.57322 25.3404 8.09735C25.4876 6.0919 23.9581 4.46036 21.9526 4.46036H8.05041C7.93711 3.96183 7.7105 3.48595 7.35927 3.08939C6.80408 2.48889 6.01098 2.13766 5.1952 2.13766H3.18975C2.72521 2.13766 2.33998 2.52289 2.33998 2.98742C2.33998 3.45196 2.72521 3.83719 3.18975 3.83719H5.16122C5.51245 3.83719 5.84103 3.98449 6.07896 4.23376C6.3169 4.49435 6.43019 4.83426 6.40753 5.18549Z" fill="white"/>
<path d="M24.162 10.6353H6.78144C6.30557 10.6353 5.92033 10.9979 5.87501 11.4624L5.46712 16.3911C5.3085 18.3172 6.82676 19.9828 8.76423 19.9828H21.3634C23.063 19.9828 24.5586 18.5892 24.6832 16.8896L25.0571 11.5984C25.1024 11.0772 24.6945 10.6353 24.162 10.6353Z" fill="white"/>
</svg>
